<svg xmlns="http://www.w3.org/2000/svg" width="1600" height="1600" viewBox="0 0 1600 1600">
  <defs><style>.mono{font-family:ui-monospace,'SF Mono','IBM Plex Mono',Menlo,Consolas,monospace}.fg{fill:#eeeeee}.muted{fill:#9a9a9a}.dim{fill:#626262}.thin{stroke:#bdbdbd;stroke-width:1.5;fill:none}.title{font-size:42px;font-weight:650}.cap{font-size:20px;font-weight:520}</style></defs>
  <rect width="1600" height="1600" fill="#050505"/>
  <rect x="60" y="60" width="1480" height="1480" class="thin" opacity=".65"/>
  <text x="100" y="126" class="mono title fg">minimal terminal card examples</text>
  <text x="100" y="164" class="mono cap dim">10 rendered cards · generated contact sheet</text>
  <image href="bento-operating-principles.png" x="100" y="210" width="360" height="360"/>
<text x="100" y="604" class="mono cap muted">bento operating principles</text>
<image href="comparison-proof-vs-confidence.png" x="564" y="210" width="360" height="360"/>
<text x="564" y="604" class="mono cap muted">comparison proof vs confidence</text>
<image href="dense-conference-agenda.png" x="1028" y="210" width="360" height="360"/>
<text x="1028" y="604" class="mono cap muted">dense conference agenda</text>
<image href="funnel-idea-to-signal.png" x="100" y="638" width="360" height="360"/>
<text x="100" y="1032" class="mono cap muted">funnel idea to signal</text>
<image href="loop-knowledge-compounds.png" x="564" y="638" width="360" height="360"/>
<text x="564" y="1032" class="mono cap muted">loop knowledge compounds</text>
<image href="matrix-team-ownership.png" x="1028" y="638" width="360" height="360"/>
<text x="1028" y="1032" class="mono cap muted">matrix team ownership</text>
<image href="research-summary-long-context-vs-rag.png" x="100" y="1066" width="360" height="360"/>
<text x="100" y="1460" class="mono cap muted">research summary long context vs r</text>
<image href="stack-product-layers.png" x="564" y="1066" width="360" height="360"/>
<text x="564" y="1460" class="mono cap muted">stack product layers</text>
<image href="timeline-release-checkpoints.png" x="1028" y="1066" width="360" height="360"/>
<text x="1028" y="1460" class="mono cap muted">timeline release checkpoints</text>
<image href="topic-digest-agent-memory.png" x="100" y="1494" width="360" height="360"/>
<text x="100" y="1888" class="mono cap muted">topic digest agent memory</text>
</svg>