<svg xmlns="http://www.w3.org/2000/svg" width="1600" height="1600" viewBox="0 0 1600 1600">

  <defs>
    <style>
      .mono{font-family: ui-monospace, 'SF Mono', 'Berkeley Mono', 'IBM Plex Mono', Menlo, Consolas, monospace;}
      .fg{fill:#eeeeee}.muted{fill:#9a9a9a}.dim{fill:#626262}
      .stroke{stroke:#eeeeee;stroke-width:2;fill:none}.thin{stroke:#bdbdbd;stroke-width:1.5;fill:none}.dash{stroke-dasharray:8 8}
      .title{font-size:50px;font-weight:650;letter-spacing:-1px}.small{font-size:24px;font-weight:500}.tiny{font-size:18px;font-weight:500;letter-spacing:1.5px}.label{font-size:28px;font-weight:600}.boxText{font-size:24px;font-weight:540}.num{font-size:24px;font-weight:600}.foot{font-size:18px;font-weight:500;letter-spacing:1.2px}.mini{font-size:20px;font-weight:500}.table{font-size:22px;font-weight:520}.big{font-size:34px;font-weight:650;letter-spacing:-.5px}.day{font-size:22px;font-weight:650;letter-spacing:1.8px}.game{font-size:20px;font-weight:540}.time{font-size:20px;font-weight:650}
    </style>
    <marker id="arrow" viewBox="0 0 10 10" refX="8" refY="5" markerWidth="7" markerHeight="7" orient="auto-start-reverse"><path d="M 0 0 L 10 5 L 0 10" fill="none" stroke="#eeeeee" stroke-width="1.6"/></marker>
  </defs>

  <rect width="1600" height="1600" fill="#050505"/>
  <rect x="92" y="86" width="1416" height="1428" class="thin" opacity=".65"/>
  <line x1="92" y1="162" x2="1508" y2="162" class="thin" opacity=".55"/>
  <circle cx="134" cy="124" r="7" fill="#eeeeee" opacity=".85"/>
  <circle cx="166" cy="124" r="7" fill="#eeeeee" opacity=".45"/>
  <circle cx="198" cy="124" r="7" fill="#eeeeee" opacity=".25"/>
  <text x="1420" y="132" text-anchor="end" class="mono tiny dim">example_003</text>

  <text x="154" y="254" class="mono tiny dim">OPERATING MODEL</text>
  <text x="154" y="332" class="mono title fg">team ownership map</text>
  <text x="154" y="384" class="mono small muted">a matrix layout for role clarity and proof artifacts.</text>
  <line x1="154" y1="452" x2="1446" y2="452" class="thin" opacity=".6"/>

  <g transform="translate(154 535)">
    <text x="0" y="0" class="mono tiny dim">RESPONSIBILITY MATRIX</text>
    <rect x="0" y="60" width="1292" height="610" class="thin" opacity=".62"/>
    <line x1="0" y1="142" x2="1292" y2="142" class="thin" opacity=".45"/>
    <line x1="330" y1="60" x2="330" y2="670" class="thin" opacity=".35"/><line x1="760" y1="60" x2="760" y2="670" class="thin" opacity=".35"/>
    <text x="36" y="112" class="mono tiny dim">ROLE</text><text x="366" y="112" class="mono tiny dim">OWNS</text><text x="796" y="112" class="mono tiny dim">RETURNS</text>
    <text x="36" y="206" class="mono label fg">operator</text><text x="366" y="206" class="mono table muted">direction / priority / handoff</text><text x="796" y="206" class="mono table fg">decision</text>
    <line x1="0" y1="254" x2="1292" y2="254" class="thin" opacity=".24"/>
    <text x="36" y="318" class="mono label fg">research</text><text x="366" y="318" class="mono table muted">sources / claims / context</text><text x="796" y="318" class="mono table fg">evidence note</text>
    <line x1="0" y1="366" x2="1292" y2="366" class="thin" opacity=".24"/>
    <text x="36" y="430" class="mono label fg">builder</text><text x="366" y="430" class="mono table muted">code / debug / automate</text><text x="796" y="430" class="mono table fg">working artifact</text>
    <line x1="0" y1="478" x2="1292" y2="478" class="thin" opacity=".24"/>
    <text x="36" y="542" class="mono label fg">analyst</text><text x="366" y="542" class="mono table muted">numbers / tradeoffs / signal</text><text x="796" y="542" class="mono table fg">recommendation</text>
    <line x1="0" y1="590" x2="1292" y2="590" class="thin" opacity=".24"/>
    <text x="36" y="648" class="mono label fg">reviewer</text><text x="366" y="648" class="mono table muted">quality / risk / missing proof</text><text x="796" y="648" class="mono table fg">approval gate</text>
  </g>

  <line x1="154" y1="1252" x2="1446" y2="1252" class="thin" opacity=".6"/>
  <text x="154" y="1324" class="mono tiny dim">RULE</text>
  <text x="154" y="1380" class="mono small fg">ownership beats roleplay.</text>
  <text x="154" y="1428" class="mono small muted">every role needs clear input, ownership, and output.</text>

  <text x="154" y="1468" class="mono foot dim">example/matrix</text>
  <text x="1446" y="1468" text-anchor="end" class="mono foot dim">terminal.cards</text>
</svg>
